<svg width="161" height="32" viewBox="0 0 161 32" fill="none" xmlns="http://www.w3.org/2000/svg">
<path d="M26.4737 15.8916C24.9711 14.9085 23.1885 14.4357 21.3929 14.5441C19.5973 14.6526 17.8854 15.3363 16.5136 16.493L14.0283 18.5617C10.7621 21.2964 7.80149 22.3328 5.02516 21.7084C4.46942 21.577 3.93561 21.3667 3.44018 21.0841L2.02688 20.2995V20.7157C2.02342 21.5915 2.3288 22.4409 2.88994 23.1161C3.45109 23.7914 4.23252 24.2499 5.09844 24.4119L12.5083 25.8229C13.0657 25.9114 13.6354 25.8873 14.1833 25.7521L14.422 25.6918C15.2846 25.39 15.9504 24.5909 16.6037 23.6002C16.7272 23.4108 16.8507 23.2173 16.9743 23.0175L18.9089 19.929C19.1711 19.511 19.5361 19.1661 19.9694 18.9269C20.4027 18.6877 20.8902 18.562 21.3858 18.5617C21.8841 18.5627 22.3739 18.6904 22.8086 18.9326C23.2432 19.1749 23.6083 19.5236 23.869 19.9457L25.7157 22.9571C26.5218 24.2704 27.2798 25.3859 28.3727 25.7209C28.9286 25.8815 29.5129 25.9206 30.0854 25.8354L30.211 25.8167L37.3906 24.4285C38.2526 24.2607 39.0293 23.8007 39.5879 23.127C40.1466 22.4532 40.4527 21.6076 40.4537 20.7345V13.4691C40.4513 13.0574 40.3805 12.6488 40.2444 12.2599C40.213 12.1684 40.1774 12.0768 40.1397 11.9873C40.0462 11.778 39.9341 11.5774 39.8047 11.3879L37.2252 14.5097C34.3567 17.6606 30.1315 18.2038 26.4737 15.8916Z" fill="url(#paint0_radial_1_3383)"/>
<path d="M59.0294 24.2912C57.8064 24.3254 56.5997 24.0059 55.5559 23.3713C54.5787 22.7492 53.8024 21.8605 53.3198 20.8115C52.7799 19.6368 52.5123 18.3566 52.5367 17.0654C52.5127 15.7619 52.7854 14.47 53.3344 13.286C53.8366 12.1844 54.6569 11.2559 55.691 10.6186C56.7251 9.98124 57.9265 9.66374 59.1425 9.70639C60.1468 9.6885 61.14 9.91726 62.034 10.3724C62.8774 10.8153 63.567 11.5007 64.0126 12.3391V3.12158H66.6612V23.954H64.2785L64.0398 21.4358C63.6108 22.3344 62.9093 23.0767 62.034 23.5586C61.1133 24.0576 60.0779 24.3101 59.0294 24.2912ZM59.5696 21.8854C60.3969 21.9071 61.2128 21.6902 61.9188 21.261C62.5799 20.8388 63.1081 20.2402 63.4431 19.5337C63.8168 18.7368 64.0016 17.8653 63.9833 16.9863C64.0014 16.1125 63.8158 15.2463 63.441 14.4556C63.1024 13.7553 62.5747 13.1624 61.9167 12.7428C61.2107 12.3136 60.3948 12.0968 59.5675 12.1185C58.7666 12.0874 57.9747 12.2964 57.2948 12.7184C56.6149 13.1404 56.0783 13.7558 55.7548 14.4847C55.4014 15.2697 55.2262 16.1223 55.2418 16.9821C55.2242 17.8583 55.3992 18.7276 55.7548 19.5295C56.0697 20.2355 56.5839 20.8355 57.2351 21.2569C57.9347 21.6887 58.7464 21.9072 59.5696 21.8854Z" fill="white"/>
<path d="M74.0041 24.2913C72.5245 24.2913 71.3618 23.9042 70.5159 23.13C69.67 22.3558 69.2477 21.3464 69.2491 20.1019C69.2289 19.5256 69.3416 18.9524 69.5786 18.4261C69.8156 17.8998 70.1705 17.4344 70.6164 17.0655C71.5279 16.3024 72.7995 15.8542 74.4312 15.721L78.8155 15.3818V14.9843C78.8494 14.3397 78.7045 13.6983 78.3968 13.13C78.1281 12.6814 77.7182 12.3333 77.2306 12.1394C76.6966 11.9344 76.1279 11.8333 75.5556 11.8417C74.4389 11.8417 73.5707 12.0728 72.9509 12.5348C72.6466 12.7624 72.4031 13.0607 72.2418 13.4036C72.0804 13.7464 72.0061 14.1234 72.0255 14.5015H69.6763C69.6559 13.6065 69.914 12.727 70.4154 11.9833C70.9411 11.2428 71.667 10.6656 72.5091 10.3183C73.5026 9.90366 74.5725 9.70088 75.6498 9.72312C76.6931 9.7004 77.7286 9.90795 78.6816 10.3308C79.5298 10.7231 80.236 11.3655 80.7041 12.1706C81.1885 12.9933 81.4307 14.027 81.4307 15.2715V23.9604H79.1568L78.8742 21.7231C78.4838 22.5395 77.826 23.1999 77.0086 23.5962C76.0798 24.0697 75.0478 24.3085 74.0041 24.2913ZM74.7725 22.2247C76.0441 22.2247 77.0407 21.8424 77.7624 21.078C78.484 20.3135 78.8449 19.2805 78.8449 17.9791V17.2444L75.2855 17.5275C74.1088 17.6399 73.2594 17.9132 72.7374 18.3475C72.4873 18.5469 72.2867 18.8007 72.1509 19.0894C72.0151 19.378 71.9479 19.6938 71.9543 20.0124C71.9543 20.7491 72.2055 21.3041 72.708 21.6773C73.2105 22.0506 73.8987 22.233 74.7725 22.2247Z" fill="white"/>
<path d="M83.5266 19.9332H86.0894C86.0748 20.2515 86.1369 20.5687 86.2705 20.8583C86.4042 21.1479 86.6055 21.4015 86.8578 21.5982C87.3715 22.0033 88.0645 22.2066 88.9369 22.2079C89.8861 22.2079 90.6168 22.0234 91.1291 21.6544C91.3726 21.4909 91.5707 21.2691 91.705 21.0093C91.8393 20.7496 91.9055 20.4603 91.8975 20.1684C91.9085 19.7517 91.7587 19.3466 91.4787 19.0362C91.2023 18.7345 90.704 18.491 89.9838 18.3016L87.5341 17.7355C86.3057 17.4275 85.3935 16.9613 84.7975 16.337C84.2015 15.7126 83.9014 14.892 83.8972 13.875C83.8783 13.0871 84.1122 12.3137 84.5651 11.6668C85.036 11.0252 85.6767 10.5259 86.416 10.2246C87.2784 9.87037 88.205 9.69679 89.1379 9.71471C90.055 9.6924 90.9653 9.87593 91.8012 10.2516C92.5164 10.5821 93.1269 11.1011 93.5662 11.7522C94.0049 12.4359 94.2367 13.2305 94.2341 14.0414H91.6693C91.6772 13.7295 91.6178 13.4194 91.495 13.1322C91.3722 12.845 91.1889 12.5873 90.9574 12.3765C90.5023 11.9811 89.8665 11.7834 89.05 11.7834C88.2334 11.7834 87.5878 11.9624 87.1132 12.3203C86.8904 12.4944 86.7123 12.7185 86.5937 12.9743C86.475 13.2301 86.4191 13.5103 86.4307 13.7917C86.4307 14.7171 87.1139 15.3498 88.4805 15.6897L90.9302 16.2829C92.1069 16.5465 92.9897 16.9759 93.5788 17.5711C94.1678 18.1663 94.4616 18.9731 94.4602 19.9915C94.4792 20.8112 94.2293 21.6147 93.7484 22.2808C93.25 22.9494 92.5754 23.468 91.7991 23.7792C90.8716 24.1475 89.8789 24.3259 88.8804 24.3037C87.2472 24.3037 85.9463 23.9076 84.9776 23.1153C84.5036 22.7335 84.1257 22.2471 83.8738 21.6947C83.6219 21.1423 83.5031 20.5392 83.5266 19.9332Z" fill="white"/>
<path d="M99.7031 23.9332H97.0251V3.12158H99.7031V12.2329C100.153 11.4662 100.805 10.8353 101.587 10.4077C102.459 9.93151 103.442 9.69245 104.437 9.71471C106.201 9.71471 107.52 10.2336 108.394 11.2714C109.268 12.3092 109.704 13.7147 109.703 15.4879V23.952H107.021V16.0831C107.051 15.2987 106.908 14.5173 106.602 13.7938C106.36 13.2619 105.95 12.8233 105.434 12.5451C104.892 12.2721 104.291 12.1362 103.683 12.1497C102.917 12.1257 102.16 12.3223 101.504 12.7158C100.914 13.0843 100.444 13.6149 100.151 14.2433C99.8408 14.9182 99.6855 15.6533 99.6968 16.3953L99.7031 23.9332Z" fill="white"/>
<path d="M118.474 24.2912C117.25 24.3254 116.044 24.0059 115 23.3713C114.023 22.7492 113.246 21.8605 112.764 20.8115C112.224 19.6368 111.956 18.3566 111.981 17.0654C111.957 15.7619 112.23 14.47 112.778 13.286C113.281 12.1844 114.101 11.2559 115.135 10.6186C116.169 9.98124 117.371 9.66374 118.587 9.70639C119.591 9.6885 120.584 9.91726 121.478 10.3724C122.322 10.8153 123.011 11.5007 123.457 12.3391V3.12158H126.105V23.954H123.712L123.484 21.4358C123.055 22.3344 122.353 23.0767 121.478 23.5586C120.557 24.0576 119.522 24.3101 118.474 24.2912ZM119.014 21.8854C119.841 21.9073 120.657 21.6904 121.363 21.261C122.025 20.8397 122.553 20.2408 122.887 19.5337C123.261 18.7368 123.446 17.8653 123.427 16.9863C123.446 16.1119 123.262 15.245 122.887 14.4535C122.549 13.7528 122.021 13.1597 121.363 12.7407C120.657 12.3113 119.841 12.0945 119.014 12.1164C118.212 12.0851 117.42 12.2942 116.739 12.7166C116.059 13.139 115.522 13.7551 115.199 14.4847C114.845 15.2697 114.67 16.1223 114.686 16.9821C114.668 17.8583 114.843 18.7276 115.199 19.5295C115.514 20.2355 116.028 20.8355 116.679 21.2569C117.379 21.6887 118.19 21.9072 119.014 21.8854Z" fill="white"/>
<path d="M130.661 6.82827C130.43 6.82965 130.2 6.78382 129.987 6.69362C129.774 6.60342 129.581 6.47076 129.422 6.30382C129.255 6.14314 129.122 5.95072 129.031 5.73799C128.941 5.52526 128.894 5.29657 128.894 5.06552C128.894 4.83448 128.941 4.60579 129.031 4.39306C129.122 4.18033 129.255 3.98791 129.422 3.82723C129.668 3.58123 129.983 3.41381 130.326 3.34632C130.669 3.27883 131.024 3.31433 131.346 3.4483C131.668 3.58226 131.943 3.80862 132.136 4.0985C132.328 4.38839 132.429 4.72866 132.426 5.07593C132.427 5.30475 132.381 5.53136 132.292 5.74231C132.203 5.95325 132.072 6.1442 131.907 6.30382C131.748 6.47254 131.554 6.60632 131.34 6.69663C131.125 6.78693 130.894 6.83177 130.661 6.82827ZM129.351 23.9521V10.1103H132.026V23.9521H129.351Z" fill="white"/>
<path d="M139.198 23.9519L133.582 10.1101H136.43L139.476 17.8375C139.723 18.4812 139.942 19.0896 140.132 19.6627C140.32 20.2391 140.473 20.7345 140.586 21.1486C140.72 20.6783 140.885 20.158 141.084 19.5919C141.283 19.0258 141.503 18.441 141.754 17.8375L144.857 10.1101H147.648L141.84 23.9519H139.198Z" fill="white"/>
<path d="M154.537 24.2913C153.278 24.3152 152.038 23.9971 150.948 23.3714C149.911 22.7636 149.063 21.8818 148.5 20.824C147.89 19.6583 147.584 18.3587 147.61 17.0446C147.581 15.7194 147.879 14.4072 148.479 13.2236C149.031 12.1384 149.883 11.232 150.935 10.6106C151.986 9.98917 153.194 9.67843 154.417 9.71477C155.626 9.68491 156.82 9.97816 157.876 10.5639C158.848 11.1238 159.639 11.9485 160.154 12.9406C160.716 14.0553 160.995 15.2902 160.964 16.5368V17.5275L149.03 17.5545L149.087 15.771H158.289C158.289 14.6222 157.94 13.6981 157.242 12.9989C156.544 12.2996 155.604 11.9527 154.424 11.9583C153.62 11.9348 152.825 12.136 152.131 12.5389C151.481 12.9416 150.973 13.535 150.678 14.2371C150.326 15.0843 150.156 15.9952 150.18 16.9114C150.18 18.5764 150.559 19.8549 151.319 20.747C152.078 21.6392 153.169 22.0873 154.593 22.0915C155.639 22.0915 156.493 21.8833 157.156 21.4671C157.818 21.0555 158.297 20.4077 158.494 19.6565H161.006C160.729 21.0287 159.947 22.249 158.814 23.08C157.691 23.8875 156.265 24.2913 154.537 24.2913Z" fill="white"/>
<path d="M3.70179 20.2829C4.36258 20.6613 5.0918 20.9066 5.8479 21.0051C8.18454 21.2777 10.7012 20.26 13.4964 17.925L15.9733 15.8542C17.4827 14.5832 19.3654 13.8319 21.3399 13.7127C23.3145 13.5934 25.2748 14.1125 26.9279 15.1924C30.2172 17.2736 34.0174 16.7907 36.6095 13.9624L39.2686 10.7387C39.0587 10.5432 38.8277 10.3715 38.5797 10.2267C38.3638 10.0993 38.135 9.9947 37.8971 9.91457C37.5059 9.77921 37.0949 9.7089 36.6807 9.70645H36.6011L24.3987 8.75536C23.3518 8.67419 22.3049 8.63257 21.2454 8.63257C20.186 8.63257 19.1391 8.67419 18.0922 8.75536L5.84581 9.71269H5.80603C4.80547 9.72008 3.84803 10.1185 3.14066 10.822C2.76884 11.192 2.47863 11.635 2.2885 12.1227C2.26338 12.1934 2.23825 12.2621 2.21522 12.3308C2.09609 12.7015 2.03535 13.0883 2.03516 13.4775V19.3547L3.70179 20.2829Z" fill="url(#paint1_radial_1_3383)"/>
<path d="M26.4737 15.8916C24.9711 14.9085 23.1885 14.4357 21.3929 14.5441C19.5973 14.6526 17.8854 15.3363 16.5136 16.493L14.0283 18.5617C10.7621 21.2964 7.80149 22.3328 5.02516 21.7084C4.46942 21.577 3.93561 21.3667 3.44018 21.0841L2.02688 20.2995V20.7157C2.02342 21.5915 2.3288 22.4409 2.88994 23.1161C3.45109 23.7914 4.23252 24.2499 5.09844 24.4119L12.5083 25.8229C13.0657 25.9114 13.6354 25.8873 14.1833 25.7521L14.422 25.6918C15.2846 25.39 15.9504 24.5909 16.6037 23.6002C16.7272 23.4108 16.8507 23.2173 16.9743 23.0175L18.9089 19.929C19.1711 19.511 19.5361 19.1661 19.9694 18.9269C20.4027 18.6877 20.8902 18.562 21.3858 18.5617C21.8841 18.5627 22.3739 18.6904 22.8086 18.9326C23.2432 19.1749 23.6083 19.5236 23.869 19.9457L25.7157 22.9571C26.5218 24.2704 27.2798 25.3859 28.3727 25.7209C28.9286 25.8815 29.5129 25.9206 30.0854 25.8354L30.211 25.8167L37.3906 24.4285C38.2526 24.2607 39.0293 23.8007 39.5879 23.127C40.1466 22.4532 40.4527 21.6076 40.4537 20.7345V13.4691C40.4513 13.0574 40.3805 12.6488 40.2444 12.2599C40.213 12.1684 40.1774 12.0768 40.1397 11.9873C40.0462 11.778 39.9341 11.5774 39.8047 11.3879L37.2252 14.5097C34.3567 17.6606 30.1315 18.2038 26.4737 15.8916Z" fill="url(#paint2_radial_1_3383)"/>
<path d="M26.928 15.1923C25.2747 14.1127 23.3142 13.5939 21.3396 13.7136C19.3651 13.8332 17.4826 14.5849 15.9734 15.8562L13.4965 17.9249C10.7013 20.2599 8.18462 21.2776 5.84798 21.005C5.09187 20.9066 4.36265 20.6612 3.70187 20.2828L2.02686 19.3546V20.3057L3.43386 21.0903C3.9293 21.373 4.46311 21.5833 5.01884 21.7147C7.80146 22.339 10.762 21.2985 14.0346 18.568L16.5136 16.4993C17.8854 15.3426 19.5973 14.6588 21.3929 14.5504C23.1885 14.4419 24.9711 14.9147 26.4736 15.8978C30.1315 18.21 34.3567 17.6668 37.2356 14.518L39.8151 11.3963C39.7795 11.3442 39.7481 11.2901 39.7104 11.2402C39.6008 11.0929 39.4804 10.9537 39.3503 10.8239L39.2686 10.749L36.6096 13.9727C34.0175 16.7886 30.2173 17.2735 26.928 15.1923Z" fill="#00ECFF"/>
<path d="M36.9254 29.0883C37.0762 28.9301 37.2249 28.7678 37.3651 28.5992C37.7321 28.1326 38.0644 27.6401 38.3597 27.1257C38.2278 27.1611 38.0938 27.1923 37.9598 27.2194H37.9409L35.6147 27.6793C35.1067 28.2172 34.5088 28.6636 33.8476 28.9988C33.3197 29.2704 32.7558 29.4666 32.1726 29.5815L31.1864 29.7501L29.9406 29.9686C28.9097 30.1664 27.8457 30.11 26.8419 29.8042C26.6612 29.7456 26.4843 29.6761 26.3122 29.5961C25.9787 29.4478 25.6604 29.268 25.3616 29.0591C25.3616 29.0445 25.3616 29.03 25.3616 29.0154C25.3616 28.9197 25.3616 28.826 25.3469 28.7324C25.2753 27.9934 24.9298 27.3072 24.3776 26.8072C23.8255 26.3072 23.1061 26.0291 22.3591 26.0269H20.391C19.6611 26.0285 18.9568 26.294 18.4094 26.7738C17.8619 27.2536 17.5088 27.915 17.4158 28.6346C17.3999 28.7588 17.3916 28.8839 17.3906 29.0092C17.3915 29.1625 17.4041 29.3156 17.4283 29.467C17.5389 30.1697 17.898 30.8101 18.4411 31.2732C18.9841 31.7363 19.6755 31.9917 20.391 31.9936H22.3591C22.8031 31.9935 23.2415 31.8955 23.6427 31.7065C24.0439 31.5176 24.3978 31.2424 24.679 30.9009C25.1784 31.2056 25.7135 31.4482 26.2724 31.6231C27.0664 31.864 27.8919 31.9868 28.7221 31.9873C29.2478 31.9877 29.7722 31.9375 30.2882 31.8375L32.6165 31.4379H32.629C33.8601 31.1836 35.017 30.6549 36.0126 29.8916C36.3353 29.6453 36.6403 29.3768 36.9254 29.0883ZM22.3528 30.0851H20.3847C20.1 30.0835 19.8274 29.9702 19.6263 29.7699C19.4252 29.5696 19.3117 29.2984 19.3106 29.0154C19.3105 28.8805 19.3369 28.747 19.3881 28.6221C19.4673 28.4235 19.6046 28.253 19.7822 28.1328C19.9599 28.0126 20.1698 27.9482 20.3847 27.9478H22.3528C22.5767 27.9482 22.7948 28.0183 22.9765 28.1482C23.1583 28.2781 23.2945 28.4612 23.3662 28.672C23.4065 28.7822 23.4277 28.8982 23.429 29.0154C23.4252 29.2979 23.3106 29.5678 23.1096 29.7676C22.9086 29.9674 22.6371 30.0814 22.3528 30.0851Z" fill="#004982"/>
<path d="M35.6965 6.7844L36.756 6.86557C37.0779 6.86942 37.3991 6.89655 37.717 6.94673C37.2202 4.75743 36.5092 2.62169 35.5939 0.570043C35.5428 0.454983 35.4693 0.351061 35.3778 0.264213C35.2862 0.177364 35.1784 0.109289 35.0604 0.0638747C34.9424 0.01846 34.8165 -0.00340502 34.69 -0.000471979C34.5635 0.00246107 34.4388 0.0301348 34.323 0.080969C34.2073 0.131803 34.1027 0.204803 34.0153 0.295799C33.928 0.386796 33.8595 0.494007 33.8138 0.611312C33.7681 0.728617 33.7461 0.853719 33.749 0.979475C33.752 1.10523 33.7798 1.22918 33.831 1.34424C34.6144 3.09884 35.2388 4.91945 35.6965 6.7844Z" fill="#004982"/>
<path d="M1.52349e-05 20.7199C0.00590353 21.817 0.320683 22.8904 0.908709 23.8188C1.03661 24.0217 1.17644 24.217 1.32746 24.4036C2.18908 25.4392 3.38715 26.1435 4.71517 26.3953L7.64644 26.953L12.1292 27.8063C12.4908 27.8753 12.8581 27.9101 13.2263 27.9104C13.8011 27.9112 14.3728 27.8263 14.9223 27.6586C15.4234 27.5039 15.8943 27.2653 16.3146 26.953C17.395 26.1622 18.1257 25.0009 18.6994 24.081L20.632 20.9947C20.7118 20.866 20.8235 20.7599 20.9565 20.6867C21.0893 20.6141 21.2384 20.5761 21.3899 20.5764C21.5416 20.5768 21.6907 20.6155 21.8233 20.6887C21.9548 20.7633 22.0656 20.8691 22.1458 20.9967L23.9904 24.0061C24.5703 24.9489 25.3094 26.1476 26.4149 26.953C26.828 27.258 27.2894 27.4923 27.7801 27.6461C28.6945 27.9245 29.6637 27.9753 30.6025 27.7938L34.9491 26.9614L37.782 26.414C39.1049 26.1557 40.2969 25.4496 41.155 24.4161C41.3068 24.2322 41.4467 24.039 41.5738 23.8375C42.164 22.9115 42.4803 21.8391 42.4867 20.7428V13.4692C42.4875 12.7093 42.3373 11.9568 42.0449 11.2548C41.9147 10.9446 41.757 10.6466 41.5738 10.3641C41.4417 10.161 41.297 9.9664 41.1404 9.78134C41.0273 9.64815 40.908 9.51704 40.7824 9.39217C40.707 9.31725 40.6295 9.2444 40.552 9.18405C39.5016 8.23835 38.1377 7.71014 36.7205 7.70018L35.1857 7.58155L24.5536 6.74909C22.3494 6.57843 20.1352 6.57843 17.931 6.74909L7.29888 7.58155L5.76415 7.70018C4.23821 7.70633 2.77689 8.31323 1.70015 9.388C1.40239 9.68617 1.13711 10.0147 0.908709 10.3682C0.312907 11.2939 -0.00252604 12.3703 1.52349e-05 13.4692V20.7199ZM2.02678 13.4692C2.02698 13.08 2.08772 12.6932 2.20684 12.3224C2.22987 12.2517 2.255 12.183 2.28012 12.1143C2.47013 11.625 2.76138 11.1808 3.13504 10.8105C3.5087 10.4401 3.95644 10.1519 4.44926 9.96449C4.88191 9.79769 5.34198 9.7123 5.80602 9.71267H5.84581L18.0901 8.75741C19.137 8.67625 20.1839 8.63462 21.2433 8.63462C22.3028 8.63462 23.3497 8.67625 24.3966 8.75741L36.599 9.7085H36.6786C37.0928 9.71095 37.5038 9.78127 37.8951 9.91662C38.1335 9.99595 38.363 10.0999 38.5797 10.2267C38.8277 10.3715 39.0587 10.5432 39.2686 10.7387L39.3502 10.8136C39.4803 10.9434 39.6007 11.0825 39.7104 11.2298C39.748 11.2798 39.7794 11.3339 39.815 11.3859C39.9444 11.5754 40.0565 11.776 40.15 11.9853C40.1877 12.0748 40.2233 12.1664 40.2547 12.2579C40.3909 12.6468 40.4616 13.0553 40.4641 13.4671V20.7345C40.4638 21.6078 40.1581 22.4539 39.5993 23.1278C39.0404 23.8017 38.2633 24.2616 37.4009 24.4286L30.2214 25.8167L30.0958 25.8355C29.5233 25.9206 28.939 25.8816 28.3831 25.721C27.2901 25.3859 26.5322 24.2642 25.7261 22.9572L23.8689 19.9458C23.6087 19.5246 23.2446 19.1764 22.8112 18.9342C22.3777 18.692 21.8892 18.5638 21.392 18.5618C20.8963 18.5621 20.4089 18.6877 19.9756 18.9269C19.5423 19.1661 19.1773 19.511 18.9151 19.9291L16.9742 23.0176C16.8506 23.2257 16.7271 23.4109 16.6036 23.6003C15.9503 24.5909 15.2845 25.3901 14.4261 25.6981L14.1874 25.7585C13.6395 25.8936 13.0698 25.9177 12.5124 25.8292L5.10252 24.4182C4.23583 24.257 3.45343 23.7989 2.89145 23.1236C2.32947 22.4483 2.0235 21.5984 2.02678 20.722V13.4692Z" fill="#004982"/>
<defs>
<radialGradient id="paint0_radial_1_3383" cx="0" cy="0" r="1" gradientUnits="userSpaceOnUse" gradientTransform="translate(37.981 15.3554) rotate(90) scale(88.5244 97.7432)">
<stop offset="0.01" stop-color="#008AFC"/>
<stop offset="1" stop-color="#0056AA"/>
</radialGradient>
<radialGradient id="paint1_radial_1_3383" cx="0" cy="0" r="1" gradientUnits="userSpaceOnUse" gradientTransform="translate(37.9809 15.3555) rotate(90) scale(88.5245 97.7432)">
<stop offset="0.01" stop-color="#008AFC"/>
<stop offset="1" stop-color="#0056AA"/>
</radialGradient>
<radialGradient id="paint2_radial_1_3383" cx="0" cy="0" r="1" gradientUnits="userSpaceOnUse" gradientTransform="translate(39.8319 14.9675) rotate(90) scale(32.0604 64.5089)">
<stop stop-color="#00CEFF"/>
<stop offset="0.91" stop-color="#009EE0" stop-opacity="0"/>
</radialGradient>
</defs>
</svg>
